<svg id="Layer_1" data-name="Layer 1" xmlns="http://www.w3.org/2000/svg" viewBox="0 0 519.65 146.02"><path d="M520.61,121.4c-.77.58-1.46,1.46-2.32,1.7-12.72,3.54-28.86-3.46-35-15.2a83.79,83.79,0,0,0-6.72-11c-.93-1.25-1.18-3.59-3.3-3.21a6,6,0,0,0-4.52,4.22A13.93,13.93,0,0,0,474.41,114a22.11,22.11,0,0,0,3.13,1.53c2.66,1.1,2.27,3.48,2.13,5.54-.16,2.34-2.18,2.11-3.83,2.11q-17.22,0-34.44,0c-2.13,0-4.14-.12-4-3,.07-2.37.08-4.66,3.51-4.8,4.87-.2,6.87-3.3,7.32-7.84.72-7.14,0-14.28,0-21.42,0-15,.18-29.93.3-44.9a19.07,19.07,0,0,0-1.34-8.3,6.14,6.14,0,0,0-6.07-3.6c-3.3,0-3.63-2-3.7-4.59-.09-3.29,2.08-3.27,4.34-3.27,7.48,0,15,.11,22.45,0,3.83-.09,4.67,1.55,4.64,5.14-.17,19.29-.08,38.57-.08,59.19,7-7.54,13.27-14.18,18.67-21.58,1.74-2.38.53-4.44-2.47-5.08s-4.06-2.43-3.53-5.46c.61-3.53,3.21-2.13,5.1-2.15,8.15-.1,16.29,0,24.44-.07,1.89,0,3.81-.2,4.28,2.25s-.41,4.35-2.93,5C502,61.3,496.55,69.84,490,77c-1.5,1.63-1.28,3.24-.09,4.94,6.54,9.42,13,18.87,19.6,28.26a10.72,10.72,0,0,0,6.34,4.58,7.61,7.61,0,0,1,4.8,3.62Z" transform="translate(-0.96)" style="fill:#a9927d"/><path d="M346.92,80a34.44,34.44,0,0,0-50.59-27.4c-12.9,6.73-17.78,18.57-18.14,32.23-.52,20.23,6.2,36.88,30.53,39.69h11.17A28.35,28.35,0,0,0,340,112.88C347.22,103,348,91.67,346.92,80ZM325,106.5c-2.38,6.63-6.4,9.92-12.24,9.79-6.07-.14-10.15-3.77-12-10.68a72.54,72.54,0,0,1,0-37.35c1.71-6.56,5.1-9.66,10.75-9.88,7.44-.3,11,2.09,13.33,9.21a27.62,27.62,0,0,1,1.68,6.71c.27,4.31.08,8.64.08,13C326.91,93.75,327.22,100.24,325,106.5Z" transform="translate(-0.96)" style="fill:#a9927d"/><path d="M428.72,82c-1-19.34-11.82-30.61-31.1-32.27-17.41-1.5-30.69,6.07-35.44,20.33A51.67,51.67,0,0,0,360,94.15c1.69,11.43,5.77,21.59,17.2,26.83,5.2,2.39,10.8,3.17,16.44,3.61l5.09-.07c14.89-1.31,24-8.94,28.18-23.3A57.66,57.66,0,0,0,428.72,82Zm-22.85,25.83c-2.43,5.81-6.74,8.87-12.06,8.49-5.84-.42-9.43-3.39-11.17-9.59a71.9,71.9,0,0,1-.06-39.25c1.58-5.68,5-8.71,9.84-9.06,7-.49,10.59,1.4,13.21,7.34,3,6.85,3,14.2,3,21.51C408.53,94.19,408.64,101.18,405.87,107.79Z" transform="translate(-0.96)" style="fill:#a9927d"/><path d="M216.5,60.47c4.22-5.45,8.82-9.57,15.79-10.63,15.06-2.29,25.47,5.72,26.55,20.91.78,11,.45,22,.52,32.93,0,5.54-.62,11.34,7.45,12.2,2.2.24,1.91,2.78,1.86,4.62-.07,2.17-1.4,2.75-3.33,2.74q-10.71,0-21.41,0c-3.89,0-5.13-2.07-5.1-5.73.11-12.64,0-25.29.07-37.94a37.06,37.06,0,0,0-1.27-10.36c-1.22-4.29-3.73-7.41-8.63-7.76-5.08-.36-8.1,2.4-9.93,6.73a26.09,26.09,0,0,0-2,9.73c-.16,10-.2,20-.18,30,0,4.13,1.77,7.12,6.29,7.51,3.09.27,3.74,2.11,3.7,4.79,0,3.35-2.38,3-4.55,3.06q-16,0-32,0c-2.14,0-4.59.27-4.63-3,0-2.76.54-4.75,4.07-4.92,3.87-.19,6-2.81,6.18-6.59Q197,87,196,65.3c-.18-3.63-2.19-5.82-6-6.09-2.87-.21-4.12-1.77-3.95-4.62.2-3.42,2.52-3.2,5-3.17,4.66.06,9.32,0,14-.16C213.3,50.9,215,52.1,216.5,60.47Z" transform="translate(-0.96)" style="fill:#a9927d"/><path d="M165.11,44.88c.18-11.14-.09-22.29-.32-33.43-.1-4.63-.91-9.08-6.36-10.61-2-.65-4-.18-6-.32a57.64,57.64,0,0,0-12.33,1.54c-16.92,3.6-33.76,7.58-50.61,11.49a30.12,30.12,0,0,1-13.78-.13C54.72,8.64,34,2.55,12.47,0h-4C2.32,1.89,1,6.7,1,12.33q0,53.21,0,106.4c0,7,2.94,10.48,9.62,12Q44,138.1,77.3,145.38a26.56,26.56,0,0,0,11.4.05q31.88-7,63.71-14.13c10.8-2.42,13-5.13,12.73-16.05C164.65,91.79,164.73,68.34,165.11,44.88ZM74.39,80.32h-.1c0,13.48-.23,27,.13,40.43.12,4.83-1.22,5.29-5.49,4.28-15.11-3.59-30.29-6.87-45.48-10.13-4.28-.92-4.91-3.83-4.88-7.42.12-14.13.3-28.27.3-42.4,0-12.64-.25-25.28-.27-37.91,0-6,.89-6.65,6.7-5.32,14.49,3.31,29,6.81,43.51,9.85,4.41.92,5.65,3.14,5.62,7.2C74.33,52.71,74.39,66.51,74.39,80.32Zm66.67,34.87c-13.75,2.8-27.38,6.21-41.06,9.37-6.63,1.53-8.2.38-8.15-6.35.08-11.31.45-22.61.43-33.92,0-14.63-.34-29.26-.43-43.89,0-6.68,1-7.81,7.2-9.21,14.2-3.18,28.43-6.23,42.57-9.62,4.41-1.06,5.71.21,5.66,4.53-.15,13.64-.05,27.29-.05,40.94h.09c0,13.48-.09,27,.06,40.45C147.43,112.08,145.85,114.22,141.06,115.19Z" transform="translate(-0.96)" style="fill:#a9927d"/></svg>